<?xml version="1.0" encoding="UTF-8" standalone="no"?>
<!DOCTYPE svg PUBLIC "-//W3C//DTD SVG 1.1//EN" "http://www.w3.org/Graphics/SVG/1.1/DTD/svg11.dtd">
<svg width="4267px" height="3350px" version="1.1" xmlns="http://www.w3.org/2000/svg" xmlns:xlink="http://www.w3.org/1999/xlink" xml:space="preserve" xmlns:serif="http://www.serif.com/" style="fill-rule:evenodd;clip-rule:evenodd;stroke-linejoin:round;stroke-miterlimit:2;">
    <g transform="matrix(5.55556,0,0,5.55556,0,0)">
        <g id="Artboard1" transform="matrix(1,0,0,0.588766,0,0)">
            <rect x="0" y="0" width="768" height="1024" style="fill:none;"/>
            <g>
                <clipPath id="_clip1">
                    <rect x="0" y="0" width="768" height="1024"/>
                </clipPath>
                <g clip-path="url(#_clip1)">
                    <g transform="matrix(1.00153,0,0,2.09528,1.65175,10.2326)">
                        <path d="M765.174,-5.624L765.174,483.835L-2.504,483.835L-2.504,-5.624L765.174,-5.624ZM27.83,446.296L734.841,446.296L734.841,68.618L705.528,68.618L705.528,96.381C700.655,91.442 694.465,88.973 686.956,88.973C677.956,88.973 670.721,92.065 665.251,98.249C659.782,104.433 657.047,112.785 657.047,123.306C657.047,134.557 659.769,143.135 665.214,149.039C668.473,152.573 672.323,155.049 676.766,156.468L645.113,156.468L645.113,114.61C645.113,107.439 644.292,102.404 642.651,99.505C641.01,96.606 638.288,94.244 634.484,92.419C630.68,90.594 626.018,89.682 620.499,89.682C610.007,89.682 602.722,93.225 598.645,100.31L598.645,91.035L571.048,91.035L571.048,156.468L530.805,156.468C537.49,154.924 543.21,152.125 547.963,148.073C555.645,141.524 559.487,133.355 559.487,123.564C559.487,113.859 555.695,105.785 548.112,99.344C540.529,92.903 530.497,89.682 518.016,89.682C505.635,89.682 495.578,92.945 487.846,99.473C480.114,106 476.248,114.159 476.248,123.95C476.248,133.054 479.952,140.988 487.361,147.751C491.99,151.977 497.629,154.883 504.277,156.468L464.537,156.468L464.537,111.969C464.537,106.172 463.704,101.888 462.039,99.118C460.373,96.349 457.688,94.083 453.983,92.323C450.279,90.562 445.99,89.682 441.117,89.682C430.923,89.682 423.365,93.074 418.442,99.859C414.017,93.074 406.906,89.682 397.111,89.682C388.011,89.682 381.074,93.074 376.301,99.859L376.301,91.035L349.599,91.035L349.599,156.468L333.861,156.468L333.861,113.902C333.861,108.362 333.55,104.626 332.928,102.693C332.307,100.761 331.101,98.764 329.311,96.703C327.521,94.642 324.972,92.956 321.666,91.646C318.359,90.337 314.518,89.682 310.142,89.682C301.49,89.682 294.479,92.709 289.108,98.764L289.108,68.618L259.348,68.618L259.348,156.468L225.243,156.468C229.971,155.281 234.067,153.352 237.531,150.682C243.772,145.872 247.489,139.646 248.682,132.002L223.323,130.134C222.328,136.618 219.171,139.86 213.85,139.86C210.22,139.86 207.672,138.572 206.205,135.996C204.738,133.419 204.005,129.447 204.005,124.079C204.005,117.852 204.738,113.483 206.205,110.971C207.672,108.459 209.996,107.202 213.179,107.202C218.151,107.202 221.184,110.659 222.278,117.573L248.309,115.705C247.365,108.19 243.685,101.974 237.27,97.057C230.856,92.14 222.552,89.682 212.358,89.682C200.872,89.682 191.536,92.935 184.351,99.441C177.166,105.946 173.573,114.224 173.573,124.272C173.573,134.106 177.19,142.169 184.425,148.46C188.846,152.304 194.079,154.973 200.123,156.468L161.937,156.468L161.937,91.035L132.177,91.035L132.177,156.468L118.417,156.468L100.03,118.217C107.29,115.254 112.113,111.83 114.5,107.943C116.887,104.057 118.08,99.58 118.08,94.513C118.08,86.74 114.836,80.481 108.347,75.736C101.857,70.991 92.745,68.618 81.01,68.618L27.83,68.618L27.83,446.296ZM83.737,156.468L59.082,156.468L59.082,122.92L68.927,122.92L83.737,156.468ZM289.108,156.468L289.108,119.506C289.108,115.941 289.233,113.601 289.481,112.484C289.73,111.368 290.613,110.284 292.129,109.232C293.646,108.179 295.423,107.653 297.462,107.653C300.098,107.653 301.875,108.33 302.795,109.682C303.715,111.035 304.175,113.515 304.175,117.122L304.175,156.468L289.108,156.468ZM378.24,156.468L378.24,115.576C378.24,110.337 380.652,107.718 385.475,107.718C390.149,107.718 392.486,110.337 392.486,115.576L392.486,156.468L378.24,156.468ZM421.053,156.468L421.053,118.668C421.053,111.669 423.838,108.169 429.407,108.169C431.744,108.169 433.372,108.716 434.292,109.811C435.212,110.906 435.672,112.828 435.672,115.576L435.672,156.468L421.053,156.468ZM600.808,156.468L600.808,117.187C600.808,110.659 603.518,107.396 608.938,107.396C610.778,107.396 612.307,107.868 613.525,108.813C614.743,109.758 615.352,111.926 615.352,115.319L615.352,156.468L600.808,156.468ZM696.105,156.468C700.761,154.895 704.374,152.021 706.945,147.848L706.945,156.468L696.105,156.468ZM59.082,104.111L59.082,87.298L73.477,87.298C81.483,87.298 85.486,90.111 85.486,95.737C85.486,98.485 84.292,100.568 81.905,101.985C79.519,103.402 76.361,104.111 72.433,104.111L59.082,104.111ZM705.528,114.417L705.528,130.649C705.528,134.085 704.695,136.64 703.03,138.314C701.364,139.989 699.338,140.827 696.951,140.827C690.685,140.827 687.553,135.523 687.553,124.916C687.553,119.506 688.162,114.932 689.38,111.196C690.598,107.46 693.172,105.592 697.1,105.592C702.719,105.592 705.528,108.534 705.528,114.417ZM517.793,142.308C514.511,142.308 512.049,141.095 510.408,138.669C508.767,136.243 507.947,131.272 507.947,123.757C507.947,117.358 508.743,112.764 510.334,109.972C511.925,107.181 514.436,105.785 517.867,105.785C521.596,105.785 524.182,107.138 525.624,109.843C527.066,112.549 527.787,116.972 527.787,123.113C527.787,127.622 527.278,131.948 526.258,136.092C525.239,140.236 522.417,142.308 517.793,142.308ZM161.937,65.849L132.177,65.849L132.177,86.203L161.937,86.203L161.937,65.849Z" style="fill:rgb(249,249,249);"/>
                    </g>
                </g>
            </g>
        </g>
    </g>
</svg>
